{
  "accessors": [
    {
      "bufferView": 2,
      "componentType": 5126,
      "count": 618,
      "max": [
        16.615386962890625,
        5.892021179199219,
        -11.076508522033691
      ],
      "min": [
        -8.993494033813477,
        -3.211350440979004,
        -24.39241600036621
      ],
      "type": "VEC3"
    },
    {
      "bufferView": 2,
      "byteOffset": 7416,
      "componentType": 5126,
      "count": 618,
      "max": [
        0.9150334596633911,
        0.9802148938179016,
        0.5330462455749512
      ],
      "min": [
        -0.8078622817993164,
        -0.9815517067909241,
        -0.9842459559440613
      ],
      "type": "VEC3"
    },
    {
      "bufferView": 3,
      "componentType": 5126,
      "count": 618,
      "max": [
        0.9607667922973633,
        0.9932528734207153,
        0.9237951040267944,
        1.0
      ],
      "min": [
        -0.9788421988487244,
        -0.9939649701118469,
        -0.9220565557479858,
        1.0
      ],
      "type": "VEC4"
    },
    {
      "bufferView": 1,
      "componentType": 5126,
      "count": 618,
      "max": [
        0.97005295753479,
        0.9753866195678711
      ],
      "min": [
        0.014436721801757813,
        0.014436721801757813
      ],
      "type": "VEC2"
    },
    {
      "bufferView": 1,
      "byteOffset": 4944,
      "componentType": 5126,
      "count": 618,
      "max": [
        0.97005295753479,
        0.9753866195678711
      ],
      "min": [
        0.014436721801757813,
        0.014436721801757813
      ],
      "type": "VEC2"
    },
    {
      "bufferView": 1,
      "byteOffset": 9888,
      "componentType": 5126,
      "count": 618,
      "max": [
        0.97005295753479,
        0.9753866195678711
      ],
      "min": [
        0.014436721801757813,
        0.014436721801757813
      ],
      "type": "VEC2"
    },
    {
      "bufferView": 1,
      "byteOffset": 14832,
      "componentType": 5126,
      "count": 618,
      "max": [
        0.97005295753479,
        0.9753866195678711
      ],
      "min": [
        0.014436721801757813,
        0.014436721801757813
      ],
      "type": "VEC2"
    },
    {
      "bufferView": 0,
      "componentType": 5125,
      "count": 864,
      "type": "SCALAR"
    },
    {
      "bufferView": 2,
      "byteOffset": 14832,
      "componentType": 5126,
      "count": 8586,
      "max": [
        22.933338165283203,
        8.034914016723633,
        0.5784053802490234
      ],
      "min": [
        -16.893352508544922,
        -3.5202622413635254,
        -33.279083251953125
      ],
      "type": "VEC3"
    },
    {
      "bufferView": 2,
      "byteOffset": 117864,
      "componentType": 5126,
      "count": 8586,
      "max": [
        0.9999426007270813,
        1.0,
        0.9996882081031799
      ],
      "min": [
        -0.9999389052391052,
        -0.9999995827674866,
        -0.999867856502533
      ],
      "type": "VEC3"
    },
    {
      "bufferView": 3,
      "byteOffset": 9888,
      "componentType": 5126,
      "count": 8586,
      "max": [
        0.9929569959640503,
        0.9948188066482544,
        0.9999919533729553,
        1.0
      ],
      "min": [
        -0.9960799217224121,
        -0.998876690864563,
        -0.9991708993911743,
        -1.0
      ],
      "type": "VEC4"
    },
    {
      "bufferView": 1,
      "byteOffset": 19776,
      "componentType": 5126,
      "count": 8586,
      "max": [
        0.9855623245239258,
        0.9849432706832886
      ],
      "min": [
        0.014436721801757813,
        0.0025418540462851524
      ],
      "type": "VEC2"
    },
    {
      "bufferView": 1,
      "byteOffset": 88464,
      "componentType": 5126,
      "count": 8586,
      "max": [
        0.9855623245239258,
        0.9849432706832886
      ],
      "min": [
        0.014436721801757813,
        0.0025418540462851524
      ],
      "type": "VEC2"
    },
    {
      "bufferView": 1,
      "byteOffset": 157152,
      "componentType": 5126,
      "count": 8586,
      "max": [
        0.9855623245239258,
        0.9849432706832886
      ],
      "min": [
        0.014436721801757813,
        0.0025418540462851524
      ],
      "type": "VEC2"
    },
    {
      "bufferView": 1,
      "byteOffset": 225840,
      "componentType": 5126,
      "count": 8586,
      "max": [
        0.9855623245239258,
        0.9849432706832886
      ],
      "min": [
        0.014436721801757813,
        0.0025418540462851524
      ],
      "type": "VEC2"
    },
    {
      "bufferView": 0,
      "byteOffset": 3456,
      "componentType": 5125,
      "count": 31527,
      "type": "SCALAR"
    }
  ],
  "asset": {
    "extras": {
      "author": "dar1amd (https://sketchfab.com/dar1amd)",
      "license": "CC-BY-4.0 (http://creativecommons.org/licenses/by/4.0/)",
      "source": "https://sketchfab.com/3d-models/a-book-c850e5d630e9420d85b8d23a2efae4d5",
      "title": "A book"
    },
    "generator": "Sketchfab-13.97.0",
    "version": "2.0"
  },
  "bufferViews": [
    {
      "buffer": 0,
      "byteLength": 129564,
      "name": "floatBufferViews",
      "target": 34963
    },
    {
      "buffer": 0,
      "byteLength": 294528,
      "byteOffset": 129564,
      "byteStride": 8,
      "name": "floatBufferViews",
      "target": 34962
    },
    {
      "buffer": 0,
      "byteLength": 220896,
      "byteOffset": 424092,
      "byteStride": 12,
      "name": "floatBufferViews",
      "target": 34962
    },
    {
      "buffer": 0,
      "byteLength": 147264,
      "byteOffset": 644988,
      "byteStride": 16,
      "name": "floatBufferViews",
      "target": 34962
    }
  ],
  "buffers": [
    {
      "byteLength": 792252,
      "uri": "scene.bin"
    }
  ],
  "images": [
    {
      "uri": "textures/Material.003_baseColor.png"
    },
    {
      "uri": "textures/Material.003_metallicRoughness.png"
    },
    {
      "uri": "textures/Material.003_emissive.png"
    },
    {
      "uri": "textures/Material.003_normal.png"
    }
  ],
  "materials": [
    {
      "alphaCutoff": 0.17195489727547442,
      "alphaMode": "MASK",
      "doubleSided": true,
      "emissiveFactor": [
        1.0,
        1.0,
        1.0
      ],
      "emissiveTexture": {
        "index": 2
      },
      "name": "Material.003",
      "normalTexture": {
        "index": 3,
        "texCoord": 2
      },
      "pbrMetallicRoughness": {
        "baseColorTexture": {
          "index": 0
        },
        "metallicRoughnessTexture": {
          "index": 1,
          "texCoord": 1
        },
        "roughnessFactor": 0.7678118672819803
      }
    }
  ],
  "meshes": [
    {
      "name": "Object_0",
      "primitives": [
        {
          "attributes": {
            "NORMAL": 1,
            "POSITION": 0,
            "TANGENT": 2,
            "TEXCOORD_0": 3,
            "TEXCOORD_1": 4,
            "TEXCOORD_2": 5,
            "TEXCOORD_3": 6
          },
          "indices": 7,
          "material": 0,
          "mode": 4
        }
      ]
    },
    {
      "name": "Object_1",
      "primitives": [
        {
          "attributes": {
            "NORMAL": 9,
            "POSITION": 8,
            "TANGENT": 10,
            "TEXCOORD_0": 11,
            "TEXCOORD_1": 12,
            "TEXCOORD_2": 13,
            "TEXCOORD_3": 14
          },
          "indices": 15,
          "material": 0,
          "mode": 4
        }
      ]
    }
  ],
  "nodes": [
    {
      "children": [
        1
      ],
      "matrix": [
        0.22043542563915253,
        0.0,
        0.0,
        0.0,
        0.0,
        4.894649699752674e-17,
        -0.22043542563915253,
        0.0,
        0.0,
        0.22043542563915253,
        4.894649699752674e-17,
        0.0,
        0.0,
        0.0,
        0.0,
        1.0
      ],
      "name": "Sketchfab_model"
    },
    {
      "children": [
        2
      ],
      "name": "root"
    },
    {
      "children": [
        3,
        5
      ],
      "matrix": [
        1.0,
        0.0,
        0.0,
        0.0,
        0.0,
        2.220446049250313e-16,
        1.0,
        0.0,
        0.0,
        -1.0,
        2.220446049250313e-16,
        0.0,
        0.0,
        0.0,
        0.0,
        1.0
      ],
      "name": "GLTF_SceneRootNode"
    },
    {
      "children": [
        4
      ],
      "matrix": [
        0.10103593021631241,
        0.0,
        0.0,
        0.0,
        0.0,
        0.2348679006099701,
        0.0,
        0.0,
        0.0,
        0.0,
        0.10103593021631241,
        0.0,
        0.09420491009950638,
        1.027596354484558,
        1.9122642278671265,
        1.0
      ],
      "name": "bake.001_1"
    },
    {
      "mesh": 0,
      "name": "Object_4"
    },
    {
      "children": [
        6
      ],
      "matrix": [
        0.10103593021631241,
        0.0,
        0.0,
        0.0,
        0.0,
        0.2348679006099701,
        0.0,
        0.0,
        0.0,
        0.0,
        0.10103593021631241,
        0.0,
        0.09420491009950638,
        1.027596354484558,
        1.9122642278671265,
        1.0
      ],
      "name": "bake.003_4"
    },
    {
      "mesh": 1,
      "name": "Object_6"
    }
  ],
  "samplers": [
    {
      "magFilter": 9729,
      "minFilter": 9987,
      "wrapS": 10497,
      "wrapT": 10497
    }
  ],
  "scene": 0,
  "scenes": [
    {
      "name": "Sketchfab_Scene",
      "nodes": [
        0
      ]
    }
  ],
  "textures": [
    {
      "sampler": 0,
      "source": 0
    },
    {
      "sampler": 0,
      "source": 1
    },
    {
      "sampler": 0,
      "source": 2
    },
    {
      "sampler": 0,
      "source": 3
    }
  ]
}
